<?xml version="1.0" encoding="utf-8"?>

<!-- The icon can be used freely in both personal and commercial projects with no attribution required, but always appreciated. 
You may NOT sub-license, resell, rent, redistribute or otherwise transfer the icon without express written permission from iconmonstr.com -->

<!DOCTYPE svg PUBLIC "-//W3C//DTD SVG 1.1//EN" "http://www.w3.org/Graphics/SVG/1.1/DTD/svg11.dtd">
<svg version="1.1" xmlns="http://www.w3.org/2000/svg" xmlns:xlink="http://www.w3.org/1999/xlink" x="0px" y="0px"
	 width="512px" height="512px" viewBox="0 0 512 512" enable-background="new 0 0 512 512" xml:space="preserve">
<path id="lock-20-icon" d="M229.248,210.349c-9.91,3.266-19.035,8.174-27.119,14.542v-25.532c0-30.105,24.495-54.599,54.602-54.599
	c30.104,0,54.599,24.493,54.599,54.599v25.113c-8.079-6.264-17.188-11.098-27.119-14.299v-10.814
	c0-15.152-12.328-27.479-27.479-27.479c-15.154,0-27.482,12.327-27.482,27.479V210.349z M257.001,222.189
	c-40.056,0-72.525,32.471-72.525,72.525s32.47,72.525,72.525,72.525c40.055,0,72.523-32.471,72.523-72.525
	S297.056,222.189,257.001,222.189z M273.408,311.122c-9.063,9.063-23.755,9.062-32.816,0c-9.062-9.062-9.062-23.753,0-32.816
	c9.063-9.062,23.756-9.062,32.816,0C282.471,287.369,282.471,302.061,273.408,311.122z M256,90.001c91.74,0,166,74.243,166,166
	c0,91.74-74.243,165.998-166,165.998c-91.741,0-166-74.241-166-165.998C90,164.259,164.243,90.001,256,90.001 M256,50.001
	c-113.771,0-206,92.229-206,206s92.229,205.998,206,205.998c113.771,0,206-92.227,206-205.998S369.771,50.001,256,50.001L256,50.001
	z"/>
</svg>
