<?xml version="1.0" encoding="utf-8"?>

<!-- License Agreement at http://iconmonstr.com/license/ -->

<!DOCTYPE svg PUBLIC "-//W3C//DTD SVG 1.1//EN" "http://www.w3.org/Graphics/SVG/1.1/DTD/svg11.dtd">
<svg version="1.1" xmlns="http://www.w3.org/2000/svg" xmlns:xlink="http://www.w3.org/1999/xlink" x="0px" y="0px"
	 width="512px" height="512px" viewBox="0 0 512 512" enable-background="new 0 0 512 512" xml:space="preserve">
<path id="thumb-16-icon" d="M256,50C142.229,50,50,142.229,50,256s92.229,206,206,206s206-92.229,206-206S369.771,50,256,50z
	 M361.966,291.003c-34.738-4.336-55.305,5.564-68.316,14.978c11.461,31.962,14.118,80.321-4.468,85.664
	c-16.052,4.614-20.296-14.909-24.481-28.306c-10.977-35.135-39.812-81.578-108.665-81.578c0,0,0-70.969,0-98.366
	c79.455,0,98.492-29.072,134.044-33.077c26.6-2.996,47.403,4.154,50.466,25.682l-8.407-2.969c-3.762-1.144-7.739,0.985-8.881,4.75
	c-1.138,3.768,0.986,7.745,4.756,8.883l7.828,2.831c9.791,2.963,11.089,12.062,12.885,25.568l-10.391-3.532
	c-3.767-1.144-7.745,0.99-8.887,4.757c-1.135,3.762,0.989,7.74,4.755,8.878l8.041,2.558c10.117,3.063,11.217,11.314,13.495,26.277
	l-11.164-3.348c-3.764-1.14-7.741,0.987-8.882,4.756c-1.14,3.764,0.983,7.74,4.753,8.88l10.716,2.84
	C359.856,269.593,361.172,279.286,361.966,291.003z"/>
</svg>
