<?xml version="1.0" encoding="utf-8"?>

<!-- License Agreement at http://iconmonstr.com/license/ -->

<!DOCTYPE svg PUBLIC "-//W3C//DTD SVG 1.1//EN" "http://www.w3.org/Graphics/SVG/1.1/DTD/svg11.dtd">
<svg version="1.1" xmlns="http://www.w3.org/2000/svg" xmlns:xlink="http://www.w3.org/1999/xlink" x="0px" y="0px"
	 width="512px" height="512px" viewBox="0 0 512 512" enable-background="new 0 0 512 512" xml:space="preserve">
<path id="infinity-4-icon" d="M462,256c0,54.847-32.119,97.39-80.917,104.472v-43.495c25.012-6.366,39.565-29.506,39.565-60.977
	c0-37.181-20.31-62.74-54.185-62.74c-26.559,0-45.165,18.06-64.853,41.478l-26.778-31.987
	c25.695-27.415,51.986-52.268,91.631-52.268C423.367,150.482,462,195.846,462,256z M323.75,301.584c0,0-47.416-55.167-74.132-86.61
	c-25.273-29.746-53.107-64.491-104.082-64.491C88.634,150.482,50,195.846,50,256s38.634,105.518,95.536,105.518
	c39.992,0,66.391-24.098,93.464-52.518l-27.25-31.5c-18.6,21.677-38.439,41.24-66.214,41.24c-33.875,0-54.185-25.56-54.185-62.74
	c0-37.181,20.31-62.74,54.185-62.74c31.581,0,52.102,26.093,74.468,51.333c22.629,25.54,74.819,85.916,74.819,85.916L265.396,360.5
	h87.813V271L323.75,301.584z"/>
</svg>
