<?xml version="1.0" encoding="utf-8"?>

<!-- License Agreement at http://iconmonstr.com/license/ -->

<!DOCTYPE svg PUBLIC "-//W3C//DTD SVG 1.1//EN" "http://www.w3.org/Graphics/SVG/1.1/DTD/svg11.dtd">
<svg version="1.1" xmlns="http://www.w3.org/2000/svg" xmlns:xlink="http://www.w3.org/1999/xlink" x="0px" y="0px"
	 width="512px" height="512px" viewBox="0 0 512 512" enable-background="new 0 0 512 512" xml:space="preserve">
<path id="thumb-17-icon" d="M256,90c44.34,0,86.026,17.267,117.38,48.62C404.732,169.974,422,211.66,422,256
	s-17.268,86.026-48.62,117.38C342.026,404.733,300.34,422,256,422s-86.026-17.267-117.38-48.62C107.268,342.026,90,300.34,90,256
	s17.268-86.026,48.62-117.38C169.974,107.267,211.66,90,256,90 M256,50C142.229,50,50,142.229,50,256s92.229,206,206,206
	s206-92.229,206-206S369.771,50,256,50z M332.39,183.499l-7.566-2.672c-3.386-1.028-6.965,0.887-7.992,4.275
	c-1.025,3.391,0.887,6.971,4.279,7.995l7.046,2.548c8.812,2.666,9.979,10.856,11.597,23.011l-9.352-3.178
	c-3.391-1.03-6.972,0.891-7.999,4.28c-1.021,3.386,0.892,6.967,4.28,7.99l7.236,2.301c9.105,2.759,10.095,10.185,12.146,23.651
	l-10.048-3.014c-3.387-1.026-6.968,0.888-7.994,4.279c-1.026,3.388,0.885,6.968,4.277,7.993l9.646,2.556
	c7.824,2.218,9.008,10.941,9.723,21.487c-31.265-3.902-49.774,5.008-61.485,13.479c10.315,28.767,12.706,72.289-4.021,77.098
	c-14.446,4.153-18.268-13.419-22.033-25.476c-9.879-31.621-35.831-73.42-97.799-73.42c0,0,0-63.871,0-88.529
	c71.509,0,88.643-26.165,120.64-29.769C310.91,157.689,329.633,164.125,332.39,183.499z"/>
</svg>
