<?xml version="1.0" encoding="utf-8"?>


<!-- The icon can be used freely in both personal and commercial projects with no attribution required, but always appreciated. 
You may NOT sub-license, resell, rent, redistribute or otherwise transfer the icon without express written permission from iconmonstr.com -->


<!DOCTYPE svg PUBLIC "-//W3C//DTD SVG 1.1//EN" "http://www.w3.org/Graphics/SVG/1.1/DTD/svg11.dtd">

<svg version="1.1" xmlns="http://www.w3.org/2000/svg" xmlns:xlink="http://www.w3.org/1999/xlink" x="0px" y="0px"

	 width="512px" height="512px" viewBox="0 0 512 512" enable-background="new 0 0 512 512" xml:space="preserve">

<path id="gear-7-icon" d="M462,278.423v-44.848l-31.217-7.812c-6.465-1.617-11.566-6.631-13.286-13.07

	c-0.01-0.035-0.019-0.068-0.027-0.104c-1.7-6.346,0.181-13.119,4.903-17.686l23.239-22.484l-22.424-38.838l-30.797,8.801

	c-6.516,1.861-13.556,0.049-18.354-4.736c-0.004-0.004-0.008-0.008-0.011-0.012c-4.592-4.578-6.332-11.295-4.55-17.529l8.941-31.293

	l-38.84-22.424l-22.376,23.127c-4.626,4.781-11.503,6.695-17.93,4.98c-0.034-0.01-0.067-0.018-0.101-0.027

	c-6.36-1.693-11.299-6.713-12.897-13.098l-7.852-31.369h-44.848l-7.812,31.217c-1.619,6.465-6.633,11.566-13.072,13.287

	c-0.033,0.008-0.067,0.018-0.102,0.027c-6.346,1.699-13.117-0.182-17.686-4.904l-22.484-23.24l-38.84,22.424l8.801,30.797

	c1.862,6.516,0.049,13.557-4.735,18.354c-0.004,0.004-0.007,0.008-0.011,0.012c-4.579,4.592-11.297,6.33-17.531,4.549l-31.293-8.941

	l-22.424,38.838l23.129,22.375c4.781,4.627,6.694,11.504,4.979,17.932c-0.009,0.035-0.018,0.068-0.027,0.104

	c-1.693,6.359-6.713,11.297-13.098,12.896L50,233.575v44.848l31.216,7.812c6.466,1.619,11.567,6.633,13.287,13.072

	c0.009,0.033,0.019,0.068,0.028,0.104c1.699,6.346-0.182,13.119-4.904,17.688l-23.24,22.482l22.424,38.838l30.797-8.801

	c6.516-1.863,13.557-0.049,18.355,4.736c0.003,0.004,0.006,0.008,0.01,0.012c4.592,4.578,6.332,11.297,4.55,17.531l-8.942,31.291

	l38.84,22.424l22.375-23.129c4.626-4.781,11.504-6.693,17.932-4.979c0.033,0.01,0.068,0.018,0.102,0.027

	c6.36,1.693,11.299,6.713,12.896,13.098l7.852,31.369h44.848l7.813-31.217c1.618-6.465,6.632-11.566,13.071-13.287

	c0.033-0.008,0.067-0.018,0.102-0.027c6.347-1.699,13.119,0.182,17.688,4.904l22.481,23.24l38.84-22.424l-8.801-30.799

	c-1.861-6.514-0.048-13.553,4.736-18.352c0.003-0.004,0.007-0.006,0.011-0.01c4.579-4.594,11.298-6.334,17.534-4.551l31.289,8.941

	l22.424-38.838l-23.128-22.375c-4.781-4.627-6.694-11.504-4.979-17.932c0.009-0.035,0.019-0.07,0.027-0.104

	c1.693-6.361,6.714-11.299,13.099-12.896L462,278.423z M256,336.843c-44.649,0-80.845-36.193-80.845-80.844

	c0-44.648,36.195-80.844,80.845-80.844c44.65,0,80.847,36.195,80.847,80.844C336.847,300.649,300.65,336.843,256,336.843z"/>

</svg>

