<?xml version="1.0" encoding="utf-8"?>

<!-- License Agreement at http://iconmonstr.com/license/ -->

<!DOCTYPE svg PUBLIC "-//W3C//DTD SVG 1.1//EN" "http://www.w3.org/Graphics/SVG/1.1/DTD/svg11.dtd">
<svg version="1.1" xmlns="http://www.w3.org/2000/svg" xmlns:xlink="http://www.w3.org/1999/xlink" x="0px" y="0px"
	 width="512px" height="512px" viewBox="0 0 512 512" enable-background="new 0 0 512 512" xml:space="preserve">
<path id="thumb-14-icon" d="M256,90c44.34,0,86.026,17.267,117.38,48.62C404.732,169.974,422,211.66,422,256
	s-17.268,86.026-48.62,117.38C342.026,404.733,300.34,422,256,422s-86.026-17.267-117.38-48.62C107.268,342.026,90,300.34,90,256
	s17.268-86.026,48.62-117.38C169.974,107.267,211.66,90,256,90 M256,50C142.229,50,50,142.229,50,256s92.229,206,206,206
	s206-92.229,206-206S369.771,50,256,50z M286.971,356.615c-31.997-3.604-49.131-29.769-120.64-29.769c0-24.658,0-88.529,0-88.529
	c61.968,0,87.92-41.799,97.799-73.42c3.766-12.057,7.587-29.629,22.033-25.476c16.727,4.809,14.336,48.331,4.021,77.098
	c11.711,8.472,30.221,17.382,61.485,13.479c-0.715,10.546-1.898,19.27-9.723,21.487l-9.646,2.556
	c-3.393,1.025-5.304,4.605-4.277,7.993c1.026,3.392,4.607,5.306,7.994,4.279l10.048-3.014c-2.052,13.467-3.041,20.893-12.146,23.651
	l-7.236,2.301c-3.389,1.023-5.301,4.604-4.28,7.99c1.027,3.39,4.608,5.311,7.999,4.28l9.352-3.178
	c-1.617,12.154-2.784,20.345-11.597,23.011l-7.046,2.548c-3.393,1.024-5.305,4.604-4.279,7.995c1.027,3.389,4.606,5.304,7.992,4.275
	l7.566-2.672C329.633,352.877,310.91,359.312,286.971,356.615z"/>
</svg>
