<?xml version="1.0" encoding="utf-8"?>

<!-- License Agreement at http://iconmonstr.com/license/ -->

<!DOCTYPE svg PUBLIC "-//W3C//DTD SVG 1.1//EN" "http://www.w3.org/Graphics/SVG/1.1/DTD/svg11.dtd">
<svg version="1.1" xmlns="http://www.w3.org/2000/svg" xmlns:xlink="http://www.w3.org/1999/xlink" x="0px" y="0px"
	 width="512px" height="512px" viewBox="0 0 512 512" style="enable-background:new 0 0 512 512;" xml:space="preserve">
<path id="layer-11-icon" d="M393.334,50v34.333h-309v309H50V50H393.334z M460.089,433.383l-81.71-81.726
	c8.752-13.881,13.881-30.276,13.881-47.913c0-49.781-40.334-90.125-90.125-90.125c-49.79,0-90.125,40.344-90.125,90.125
	c0,49.791,40.335,90.125,90.125,90.125c17.637,0,34.032-5.129,47.913-13.881l81.726,81.71L460.089,433.383z M233.469,303.744
	c0-37.854,30.812-68.666,68.666-68.666c37.854,0,68.668,30.812,68.668,68.666c0,37.854-30.813,68.668-68.668,68.668
	C264.281,372.412,233.469,341.599,233.469,303.744z M349.176,427.666H153V153h274.666v199.395L462,386.729V118.667H118.667V462
	H383.51L349.176,427.666z"/>
</svg>
