<?xml version="1.0" encoding="utf-8"?>

<!-- License Agreement at http://iconmonstr.com/license/ -->

<!DOCTYPE svg PUBLIC "-//W3C//DTD SVG 1.1//EN" "http://www.w3.org/Graphics/SVG/1.1/DTD/svg11.dtd">
<svg version="1.1" xmlns="http://www.w3.org/2000/svg" xmlns:xlink="http://www.w3.org/1999/xlink" x="0px" y="0px"
	 width="512px" height="512px" viewBox="0 0 512 512" style="enable-background:new 0 0 512 512;" xml:space="preserve">
<path id="layer-5-icon" d="M427.666,153v274.666H153V153H427.666z M462,118.667H118.667V462H462V118.667z M50,50v343.334h34.333
	v-309h309V50H50z M290.451,242.689c-54.149,0-85.951,44.593-85.951,44.593s34.585,50.695,85.951,50.695
	c55.305,0,85.715-50.695,85.715-50.695S345.471,242.689,290.451,242.689z M291.172,323.678c-18.408,0-33.328-14.938-33.328-33.344
	c0-18.408,14.92-33.345,33.328-33.345c18.406,0,33.327,14.937,33.327,33.345C324.499,308.74,309.578,323.678,291.172,323.678z
	 M309.914,290.334c0,10.359-8.383,18.759-18.742,18.759c-10.361,0-18.742-8.399-18.742-18.759c0-1.241,0.1-2.448,0.334-3.621
	c9.221,3.369,18.291-5.516,15.021-14.82c1.106-0.201,2.246-0.318,3.387-0.318C301.531,271.574,309.914,279.973,309.914,290.334z"/>
</svg>
