<?xml version="1.0" encoding="utf-8"?>


<!-- The icon can be used freely in both personal and commercial projects with no attribution required, but always appreciated. 
You may NOT sub-license, resell, rent, redistribute or otherwise transfer the icon without express written permission from iconmonstr.com -->


<!DOCTYPE svg PUBLIC "-//W3C//DTD SVG 1.1//EN" "http://www.w3.org/Graphics/SVG/1.1/DTD/svg11.dtd">

<svg version="1.1" xmlns="http://www.w3.org/2000/svg" xmlns:xlink="http://www.w3.org/1999/xlink" x="0px" y="0px"

	 width="512px" height="512px" viewBox="0 0 512 512" enable-background="new 0 0 512 512" xml:space="preserve">

<path id="dashboard-4-icon" d="M393.702,261.194c-2.425-7.329-5.401-14.488-8.863-21.32l-42.122,18.99

	c3.721,6.752,6.697,13.905,8.87,21.316L393.702,261.194z M177.864,245.682c4.654-6.067,9.948-11.581,15.771-16.429l-32.441-33.792

	c-5.636,5.04-10.932,10.555-15.771,16.428L177.864,245.682z M207.291,219.687c6.513-3.792,13.414-6.808,20.566-8.989l-17.744-44.088

	c-7.045,2.433-13.949,5.453-20.565,8.992L207.291,219.687z M159.935,281.747c2.064-7.466,4.931-14.667,8.542-21.464l-42.396-18.298

	c-3.373,6.915-6.242,14.118-8.549,21.46L159.935,281.747z M321.896,175.324c-6.64-3.515-13.556-6.505-20.599-8.908l-17.575,44.166

	c7.163,2.152,14.076,5.138,20.602,8.901L321.896,175.324z M366.537,211.889c-4.837-5.873-10.134-11.388-15.771-16.428l-32.44,33.792

	c5.824,4.848,11.116,10.361,15.771,16.429L366.537,211.889z M267.133,159.372c-3.763-0.299-7.506-0.45-11.152-0.45

	c-3.646,0-7.39,0.151-11.151,0.45v47.785c3.702-0.429,7.443-0.646,11.151-0.646s7.45,0.216,11.152,0.646V159.372z M256,96.511

	c-113.589,0-206,92.412-206,206c0,37.486,10.07,72.663,27.64,102.976h356.462v-0.147l0.259,0.148

	C451.93,375.175,462,339.998,462,302.512C462,188.923,369.589,96.511,256,96.511z M409.51,365.333H300.053

	c-1.317-15.014-10.117-27.878-22.665-34.822l-21.389-100.25l-21.389,100.25c-12.546,6.944-21.346,19.809-22.663,34.822H102.49

	c-7.964-19.388-12.373-40.597-12.373-62.821c0-91.469,74.414-165.884,165.883-165.884s165.883,74.415,165.883,165.884

	C421.883,324.736,417.474,345.945,409.51,365.333z"/>

</svg>

